ffmpeg started on 2016-11-26 at 23:29:57
Report written to "Output/NVENCh264/results/ffmpeg/crowd_run_2160p50ll15000k.log"
Command line:
Tools/ffmpeg/ffmpeg -benchmark -y -i Input/y4m/crowd_run_2160p50.y4m -c:v h264_nvenc -preset ll -b:v 15000k -an Output/NVENCh264/encoded/crowd_run_2160p50ll15000k.mkv
ffmpeg version N-82227-gdb23fde Copyright (c) 2000-2016 the FFmpeg developers
  built with gcc 5.4.0 (Ubuntu 5.4.0-6ubuntu1~16.04.2) 20160609
  configuration: --prefix=/home/jaroslav/ffmpeg_build --pkg-config-flags=--static --extra-cflags=-I/home/jaroslav/ffmpeg_build/include --extra-ldflags=-L/home/jaroslav/ffmpeg_build/lib --bindir=/home/jaroslav/bin --enable-gpl --enable-libass --enable-libfdk-aac --enable-libfreetype --enable-libmp3lame --enable-libopus --enable-libtheora --enable-libvorbis --enable-libvpx --enable-libx264 --enable-libx265 --enable-nvenc --enable-libmfx --enable-libxvid --enable-libgsm --enable-libopencore-amrnb --enable-version3 --enable-nonfree
  libavutil      55. 35.100 / 55. 35.100
  libavcodec     57. 66.101 / 57. 66.101
  libavformat    57. 57.100 / 57. 57.100
  libavdevice    57.  2.100 / 57.  2.100
  libavfilter     6. 66.100 /  6. 66.100
  libswscale      4.  3.100 /  4.  3.100
  libswresample   2.  4.100 /  2.  4.100
  libpostproc    54.  2.100 / 54.  2.100
Input #0, yuv4mpegpipe, from 'Input/y4m/crowd_run_2160p50.y4m':
  Duration: 00:00:10.00, start: 0.000000, bitrate: 4976642 kb/s
    Stream #0:0: Video: rawvideo (I420 / 0x30323449), yuv420p(progressive), 3840x2160, SAR 1:1 DAR 16:9, 50 fps, 50 tbr, 50 tbn, 50 tbc
[h264_nvenc @ 0x28dd1c0] The variable bitrate rate-control requires the 'qmin' and/or 'qmax' option set.
Output #0, matroska, to 'Output/NVENCh264/encoded/crowd_run_2160p50ll15000k.mkv':
  Metadata:
    encoder         : Lavf57.57.100
    Stream #0:0: Video: h264 (h264_nvenc) (Main) (H264 / 0x34363248), yuv420p, 3840x2160 [SAR 1:1 DAR 16:9], q=-1--1, 15000 kb/s, 50 fps, 1k tbn, 50 tbc
    Metadata:
      encoder         : Lavc57.66.101 h264_nvenc
    Side data:
      cpb: bitrate max/min/avg: 0/0/15000000 buffer size: 30000000 vbv_delay: -1
Stream mapping:
  Stream #0:0 -> #0:0 (rawvideo (native) -> h264 (h264_nvenc))
Press [q] to stop, [?] for help
frame=    3 fps=2.6 q=0.0 size=       0kB time=00:00:00.00 bitrate=N/A speed=   0x    frame=   13 fps=7.7 q=0.0 size=       0kB time=00:00:00.00 bitrate=N/A speed=   0x    frame=   24 fps= 11 q=0.0 size=       0kB time=00:00:00.00 bitrate=N/A speed=   0x    frame=   34 fps= 12 q=43.0 size=       1kB time=00:00:00.06 bitrate=  98.1kbits/s speed=0.0223x    frame=   52 fps= 16 q=40.0 size=       1kB time=00:00:00.42 bitrate=  14.2kbits/s speed=0.129x    frame=   70 fps= 19 q=40.0 size=       1kB time=00:00:00.78 bitrate=   7.7kbits/s speed=0.207x    frame=   88 fps= 20 q=40.0 size=       1kB time=00:00:01.14 bitrate=   5.2kbits/s speed=0.266x    frame=  106 fps= 22 q=40.0 size=       1kB time=00:00:01.50 bitrate=   4.0kbits/s speed=0.311x    frame=  124 fps= 23 q=40.0 size=       1kB time=00:00:01.86 bitrate=   3.2kbits/s speed=0.349x    frame=  140 fps= 16 q=40.0 size=       1kB time=00:00:02.18 bitrate=   2.7kbits/s speed=0.247x    frame=  141 fps= 15 q=40.0 size=       1kB time=00:00:02.20 bitrate=   2.7kbits/s speed=0.233x    frame=  158 fps= 16 q=40.0 size=       1kB time=00:00:02.54 bitrate=   2.4kbits/s speed=0.256x    frame=  172 fps= 16 q=40.0 size=    5138kB time=00:00:02.82 bitrate=14921.2kbits/s speed=0.269x    frame=  183 fps= 17 q=40.0 size=    5138kB time=00:00:03.04 bitrate=13841.7kbits/s speed=0.276x    frame=  192 fps= 17 q=40.0 size=    5138kB time=00:00:03.22 bitrate=13068.2kbits/s speed=0.28x    frame=  202 fps= 17 q=40.0 size=    5138kB time=00:00:03.42 bitrate=12304.2kbits/s speed=0.284x    frame=  212 fps= 17 q=40.0 size=    5138kB time=00:00:03.62 bitrate=11624.6kbits/s speed=0.289x    frame=  227 fps= 17 q=40.0 size=    5138kB time=00:00:03.92 bitrate=10735.2kbits/s speed= 0.3x    frame=  242 fps= 18 q=41.0 size=    5138kB time=00:00:04.22 bitrate=9972.2kbits/s speed=0.311x    frame=  258 fps= 18 q=41.0 size=    5138kB time=00:00:04.54 bitrate=9269.5kbits/s speed=0.322x    frame=  274 fps= 19 q=40.0 size=    5138kB time=00:00:04.86 bitrate=8659.3kbits/s speed=0.333x    frame=  290 fps= 19 q=41.0 size=    9273kB time=00:00:05.18 bitrate=14661.6kbits/s speed=0.343x    frame=  308 fps= 20 q=40.0 size=    9273kB time=00:00:05.54 bitrate=13709.0kbits/s speed=0.354x    frame=  326 fps= 20 q=41.0 size=    9273kB time=00:00:05.90 bitrate=12872.7kbits/s speed=0.365x    frame=  344 fps= 21 q=41.0 size=    9273kB time=00:00:06.26 bitrate=12132.5kbits/s speed=0.375x    frame=  360 fps= 21 q=40.0 size=    9273kB time=00:00:06.58 bitrate=11542.6kbits/s speed=0.377x    frame=  378 fps= 21 q=40.0 size=    9273kB time=00:00:06.94 bitrate=10943.9kbits/s speed=0.386x    frame=  396 fps= 21 q=41.0 size=    9273kB time=00:00:07.30 bitrate=10404.3kbits/s speed=0.395x    frame=  402 fps= 21 q=40.0 size=    9273kB time=00:00:07.42 bitrate=10236.0kbits/s speed=0.391x    frame=  418 fps= 21 q=40.0 size=    9273kB time=00:00:07.74 bitrate=9812.9kbits/s speed=0.397x    frame=  435 fps= 22 q=40.0 size=   14429kB time=00:00:08.08 bitrate=14627.7kbits/s speed=0.404x    frame=  453 fps= 22 q=41.0 size=   14429kB time=00:00:08.44 bitrate=14003.8kbits/s speed=0.411x    frame=  471 fps= 22 q=40.0 size=   14429kB time=00:00:08.80 bitrate=13431.0kbits/s speed=0.418x    frame=  489 fps= 23 q=40.0 size=   14429kB time=00:00:09.16 bitrate=12903.2kbits/s speed=0.425x    frame=  500 fps= 23 q=40.0 Lsize=   18339kB time=00:00:09.98 bitrate=15051.8kbits/s speed=0.455x    
video:18334kB audio:0kB subtitle:0kB other streams:0kB global headers:0kB muxing overhead: 0.025977%
bench: utime=1.176s
bench: maxrss=1420976kB
